{
	"patcher" : 	{
		"fileversion" : 1,
		"appversion" : 		{
			"major" : 9,
			"minor" : 0,
			"revision" : 9,
			"architecture" : "x64",
			"modernui" : 1
		}
,
		"classnamespace" : "box",
		"rect" : [ 133.0, 160.0, 1677.0, 804.0 ],
		"openinpresentation" : 1,
		"gridsize" : [ 15.0, 15.0 ],
		"boxes" : [ 			{
				"box" : 				{
					"annotation" : "Map the sequencer velocities",
					"bgmode" : 0,
					"border" : 0,
					"clickthrough" : 0,
					"enablehscroll" : 0,
					"enablevscroll" : 0,
					"hint" : "Map Velocities",
					"id" : "obj-15",
					"lockeddragscroll" : 0,
					"lockedsize" : 0,
					"maxclass" : "bpatcher",
					"name" : "UniversalSingleMapper.maxpat",
					"numinlets" : 1,
					"numoutlets" : 2,
					"offset" : [ 0.0, 0.0 ],
					"outlettype" : [ "", "" ],
					"patching_rect" : [ 260.0, 507.0, 160.0, 29.0 ],
					"presentation" : 1,
					"presentation_rect" : [ 109.5, 41.0, 160.0, 15.0 ],
					"viewvisibility" : 1
				}

			}
, 			{
				"box" : 				{
					"fontname" : "Ableton Sans Small",
					"fontsize" : 8.0,
					"id" : "obj-16",
					"maxclass" : "comment",
					"numinlets" : 1,
					"numoutlets" : 0,
					"patching_rect" : [ 260.0, 487.0, 121.0, 16.0 ],
					"presentation" : 1,
					"presentation_rect" : [ 110.5, 24.0, 65.0, 16.0 ],
					"text" : "Shifter LFO"
				}

			}
, 			{
				"box" : 				{
					"id" : "obj-17",
					"maxclass" : "comment",
					"numinlets" : 1,
					"numoutlets" : 0,
					"patching_rect" : [ 260.0, 460.0, 150.0, 20.0 ],
					"text" : "MAP SHIFTER"
				}

			}
, 			{
				"box" : 				{
					"fontname" : "Ableton Sans Small",
					"fontsize" : 12.0,
					"id" : "obj-14",
					"linecount" : 2,
					"maxclass" : "comment",
					"numinlets" : 1,
					"numoutlets" : 0,
					"patching_rect" : [ 86.0, -1.0, 102.0, 35.0 ],
					"presentation" : 1,
					"presentation_rect" : [ 101.0, 0.0, 177.0, 21.0 ],
					"text" : "M O D U L A T O R S",
					"textcolor" : [ 0.835294117647059, 0.603921568627451, 0.011764705882353, 1.0 ],
					"textjustification" : 1
				}

			}
, 			{
				"box" : 				{
					"id" : "obj-13",
					"maxclass" : "comment",
					"numinlets" : 1,
					"numoutlets" : 0,
					"patching_rect" : [ 665.0, 3.0, 150.0, 20.0 ],
					"text" : "MAP MOD 2"
				}

			}
, 			{
				"box" : 				{
					"id" : "obj-12",
					"maxclass" : "comment",
					"numinlets" : 1,
					"numoutlets" : 0,
					"patching_rect" : [ 486.0, 3.0, 150.0, 20.0 ],
					"text" : "MAP MOD 1"
				}

			}
, 			{
				"box" : 				{
					"annotation" : "Map the sequence Modulator 1",
					"bgmode" : 0,
					"border" : 0,
					"clickthrough" : 0,
					"enablehscroll" : 0,
					"enablevscroll" : 0,
					"hint" : "Map Modulator 2",
					"id" : "obj-50",
					"lockeddragscroll" : 0,
					"lockedsize" : 0,
					"maxclass" : "bpatcher",
					"name" : "UniversalSingleMapper.maxpat",
					"numinlets" : 1,
					"numoutlets" : 2,
					"offset" : [ 0.0, 0.0 ],
					"outlettype" : [ "", "" ],
					"patching_rect" : [ 630.0, 49.0, 160.0, 29.0 ],
					"presentation" : 1,
					"presentation_rect" : [ 109.0, 148.0, 160.0, 14.0 ],
					"viewvisibility" : 1
				}

			}
, 			{
				"box" : 				{
					"annotation" : "Map the sequence Modulator 1",
					"bgmode" : 0,
					"border" : 0,
					"clickthrough" : 0,
					"enablehscroll" : 0,
					"enablevscroll" : 0,
					"hint" : "Map Modulator 1",
					"id" : "obj-33",
					"lockeddragscroll" : 0,
					"lockedsize" : 0,
					"maxclass" : "bpatcher",
					"name" : "UniversalSingleMapper.maxpat",
					"numinlets" : 1,
					"numoutlets" : 2,
					"offset" : [ 0.0, 0.0 ],
					"outlettype" : [ "", "" ],
					"patching_rect" : [ 455.0, 49.0, 160.0, 29.0 ],
					"presentation" : 1,
					"presentation_rect" : [ 109.0, 112.0, 160.0, 14.0 ],
					"viewvisibility" : 1
				}

			}
, 			{
				"box" : 				{
					"annotation" : "Map the sequencer velocities",
					"bgmode" : 0,
					"border" : 0,
					"clickthrough" : 0,
					"enablehscroll" : 0,
					"enablevscroll" : 0,
					"hint" : "Map Velocities",
					"id" : "obj-39",
					"lockeddragscroll" : 0,
					"lockedsize" : 0,
					"maxclass" : "bpatcher",
					"name" : "UniversalSingleMapper.maxpat",
					"numinlets" : 1,
					"numoutlets" : 2,
					"offset" : [ 0.0, 0.0 ],
					"outlettype" : [ "", "" ],
					"patching_rect" : [ 282.0, 49.0, 160.0, 29.0 ],
					"presentation" : 1,
					"presentation_rect" : [ 109.5, 76.5, 160.0, 15.0 ],
					"viewvisibility" : 1
				}

			}
, 			{
				"box" : 				{
					"id" : "obj-18",
					"maxclass" : "newobj",
					"numinlets" : 1,
					"numoutlets" : 2,
					"outlettype" : [ "", "" ],
					"patching_rect" : [ 964.0, 271.0, 67.0, 22.0 ],
					"save" : [ "#N", "thispatcher", ";", "#Q", "end", ";" ],
					"text" : "thispatcher"
				}

			}
, 			{
				"box" : 				{
					"fontname" : "Ableton Sans Small",
					"fontsize" : 8.0,
					"id" : "obj-43",
					"maxclass" : "comment",
					"numinlets" : 1,
					"numoutlets" : 0,
					"patching_rect" : [ 670.0, 30.0, 120.0, 16.0 ],
					"presentation" : 1,
					"presentation_rect" : [ 108.0, 130.0, 56.000000834465027, 16.0 ],
					"text" : "Modulator 2"
				}

			}
, 			{
				"box" : 				{
					"fontname" : "Ableton Sans Small",
					"fontsize" : 8.0,
					"id" : "obj-42",
					"maxclass" : "comment",
					"numinlets" : 1,
					"numoutlets" : 0,
					"patching_rect" : [ 483.0, 30.0, 120.0, 16.0 ],
					"presentation" : 1,
					"presentation_rect" : [ 108.0, 94.0, 56.000000834465027, 16.0 ],
					"text" : "Modulator 1"
				}

			}
, 			{
				"box" : 				{
					"fontname" : "Ableton Sans Small",
					"fontsize" : 8.0,
					"id" : "obj-40",
					"maxclass" : "comment",
					"numinlets" : 1,
					"numoutlets" : 0,
					"patching_rect" : [ 314.0, 30.0, 121.0, 16.0 ],
					"presentation" : 1,
					"presentation_rect" : [ 110.5, 58.5, 65.0, 16.0 ],
					"text" : "Velocity"
				}

			}
, 			{
				"box" : 				{
					"id" : "obj-38",
					"maxclass" : "newobj",
					"numinlets" : 1,
					"numoutlets" : 2,
					"outlettype" : [ "bang", "" ],
					"patching_rect" : [ 561.0, 174.0, 31.0, 22.0 ],
					"text" : "t b s"
				}

			}
, 			{
				"box" : 				{
					"id" : "obj-35",
					"maxclass" : "number",
					"numinlets" : 1,
					"numoutlets" : 2,
					"outlettype" : [ "", "bang" ],
					"parameter_enable" : 0,
					"patching_rect" : [ 414.0, 149.0, 50.0, 22.0 ]
				}

			}
, 			{
				"box" : 				{
					"id" : "obj-31",
					"maxclass" : "newobj",
					"numinlets" : 0,
					"numoutlets" : 1,
					"outlettype" : [ "" ],
					"patching_rect" : [ 593.0, 140.0, 52.0, 22.0 ],
					"text" : "r ---OFF"
				}

			}
, 			{
				"box" : 				{
					"id" : "obj-30",
					"maxclass" : "newobj",
					"numinlets" : 1,
					"numoutlets" : 0,
					"patching_rect" : [ -13.0, 601.0, 54.0, 22.0 ],
					"text" : "s ---OFF"
				}

			}
, 			{
				"box" : 				{
					"id" : "obj-28",
					"maxclass" : "message",
					"numinlets" : 2,
					"numoutlets" : 1,
					"outlettype" : [ "" ],
					"patching_rect" : [ -13.0, 570.0, 32.0, 22.0 ],
					"text" : "OFF"
				}

			}
, 			{
				"box" : 				{
					"id" : "obj-25",
					"maxclass" : "newobj",
					"numinlets" : 0,
					"numoutlets" : 1,
					"outlettype" : [ "" ],
					"patching_rect" : [ 108.0, 250.0, 54.0, 22.0 ],
					"text" : "r ---reset"
				}

			}
, 			{
				"box" : 				{
					"id" : "obj-24",
					"maxclass" : "newobj",
					"numinlets" : 1,
					"numoutlets" : 0,
					"patching_rect" : [ 383.0, 639.0, 56.0, 22.0 ],
					"text" : "s ---reset"
				}

			}
, 			{
				"box" : 				{
					"id" : "obj-23",
					"maxclass" : "newobj",
					"numinlets" : 2,
					"numoutlets" : 2,
					"outlettype" : [ "", "" ],
					"patching_rect" : [ 383.0, 593.0, 66.0, 22.0 ],
					"text" : "route reset"
				}

			}
, 			{
				"box" : 				{
					"id" : "obj-66",
					"maxclass" : "newobj",
					"numinlets" : 0,
					"numoutlets" : 1,
					"outlettype" : [ "" ],
					"patching_rect" : [ 175.0, 250.0, 40.0, 22.0 ],
					"text" : "r ---hz"
				}

			}
, 			{
				"box" : 				{
					"id" : "obj-65",
					"maxclass" : "newobj",
					"numinlets" : 1,
					"numoutlets" : 0,
					"patching_rect" : [ 568.0, 655.0, 42.0, 22.0 ],
					"text" : "s ---hz"
				}

			}
, 			{
				"box" : 				{
					"id" : "obj-63",
					"maxclass" : "newobj",
					"numinlets" : 1,
					"numoutlets" : 1,
					"outlettype" : [ "" ],
					"patching_rect" : [ 568.0, 620.0, 71.0, 22.0 ],
					"text" : "fromsymbol"
				}

			}
, 			{
				"box" : 				{
					"id" : "obj-60",
					"maxclass" : "newobj",
					"numinlets" : 2,
					"numoutlets" : 2,
					"outlettype" : [ "", "" ],
					"patching_rect" : [ 568.0, 593.0, 52.0, 22.0 ],
					"text" : "route hz"
				}

			}
, 			{
				"box" : 				{
					"id" : "obj-59",
					"maxclass" : "newobj",
					"numinlets" : 2,
					"numoutlets" : 2,
					"outlettype" : [ "", "" ],
					"patching_rect" : [ 502.0, 593.0, 55.0, 22.0 ],
					"text" : "route ms"
				}

			}
, 			{
				"box" : 				{
					"id" : "obj-58",
					"maxclass" : "newobj",
					"numinlets" : 1,
					"numoutlets" : 1,
					"outlettype" : [ "" ],
					"patching_rect" : [ 648.0, 234.0, 98.0, 22.0 ],
					"text" : "prepend setBPM"
				}

			}
, 			{
				"box" : 				{
					"id" : "obj-57",
					"maxclass" : "newobj",
					"numinlets" : 1,
					"numoutlets" : 1,
					"outlettype" : [ "" ],
					"patching_rect" : [ 502.0, 237.0, 107.0, 22.0 ],
					"text" : "prepend setTiming"
				}

			}
, 			{
				"box" : 				{
					"id" : "obj-56",
					"maxclass" : "message",
					"numinlets" : 2,
					"numoutlets" : 1,
					"outlettype" : [ "" ],
					"patching_rect" : [ 745.0, 174.0, 29.5, 22.0 ],
					"text" : "75"
				}

			}
, 			{
				"box" : 				{
					"id" : "obj-54",
					"maxclass" : "message",
					"numinlets" : 2,
					"numoutlets" : 1,
					"outlettype" : [ "" ],
					"patching_rect" : [ 473.0, 625.0, 50.0, 22.0 ],
					"text" : "1000"
				}

			}
, 			{
				"box" : 				{
					"annotation" : "Set Shift Time/Frequency",
					"bgcolor" : [ 0.284122077864072, 0.28412200358282, 0.284122022993698, 0.0 ],
					"bgfillcolor_angle" : 270.0,
					"bgfillcolor_autogradient" : 0.0,
					"bgfillcolor_color" : [ 0.284122077864072, 0.28412200358282, 0.284122022993698, 0.0 ],
					"bgfillcolor_color1" : [ 0.284122077864072, 0.28412200358282, 0.284122022993698, 0.0 ],
					"bgfillcolor_color2" : [ 0.284122077864072, 0.28412200358282, 0.284122022993698, 1.0 ],
					"bgfillcolor_proportion" : 0.39,
					"bgfillcolor_type" : "color",
					"fontname" : "Ableton Sans Small",
					"fontsize" : 9.0,
					"hint" : "Shift Time",
					"id" : "obj-48",
					"items" : [ "OFF", ",", "2/1", ",", "1/1", ",", "1/2", ",", "1/3", ",", "1/4", ",", "1/6", ",", "1/8", ",", "1/12", ",", "1/16", ",", "1/32", ",", "1/64", ",", "1/128" ],
					"maxclass" : "umenu",
					"numinlets" : 1,
					"numoutlets" : 3,
					"outlettype" : [ "int", "", "" ],
					"parameter_enable" : 0,
					"patching_rect" : [ 487.0, 149.0, 49.0, 19.0 ],
					"presentation" : 1,
					"presentation_rect" : [ 14.0, 39.0, 79.0, 19.0 ]
				}

			}
, 			{
				"box" : 				{
					"code" : "let timingStr = \"1/1\"\r\nlet bpm = 120\r\n\r\nfunction setBPM(val){\r\n\tbpm = parseFloat(val)\r\n\ttimingToMs()\r\n}\r\nfunction setTiming(val){\r\n\tif ( val == 'OFF' ) {\r\n\t\toutlet(0,\"reset\",0)\r\n\t\t\r\n\t}\r\n\t\r\n\ttimingStr = val\r\n\ttimingToMs()\r\n}\r\nfunction timingToMs() {\r\n    if (!timingStr || !bpm) return 0;\r\n    \r\n    var parts = timingStr.split('/');\r\n    if (parts.length !== 2) return 0;\r\n    \r\n    var numerator = parseFloat(parts[0]);\r\n    var denominator = parseFloat(parts[1]);\r\n    \r\n    if (isNaN(numerator) || isNaN(denominator) || denominator === 0) return 0;\r\n    \r\n    var quarterNoteMs = 60000 / bpm;\r\n    var wholeNoteMs = quarterNoteMs * 4;\r\n    var result = wholeNoteMs * (numerator / denominator);\r\n    outlet(0,\"ms\",result)\r\n\tif ( result != 0 ){\r\n\t\toutlet(0,\"hz\",(1000 / result).toFixed(2));\r\n\t} \r\n    return result;\r\n}",
					"filename" : "none",
					"fontface" : 0,
					"fontname" : "<Monospaced>",
					"fontsize" : 12.0,
					"id" : "obj-47",
					"maxclass" : "v8.codebox",
					"numinlets" : 1,
					"numoutlets" : 1,
					"outlettype" : [ "" ],
					"patching_rect" : [ 502.0, 287.0, 354.0, 292.0 ],
					"saved_object_attributes" : 					{
						"parameter_enable" : 0
					}
,
					"varname" : "v8_AA"
				}

			}
, 			{
				"box" : 				{
					"id" : "obj-46",
					"maxclass" : "newobj",
					"numinlets" : 0,
					"numoutlets" : 1,
					"outlettype" : [ "" ],
					"patching_rect" : [ 648.0, 193.0, 61.0, 22.0 ],
					"text" : "r ---tempo"
				}

			}
, 			{
				"box" : 				{
					"id" : "obj-45",
					"maxclass" : "newobj",
					"numinlets" : 1,
					"numoutlets" : 0,
					"patching_rect" : [ 825.0, 56.0, 63.0, 22.0 ],
					"text" : "s ---tempo"
				}

			}
, 			{
				"box" : 				{
					"comment" : "Song BPM",
					"id" : "obj-34",
					"index" : 0,
					"maxclass" : "inlet",
					"numinlets" : 0,
					"numoutlets" : 1,
					"outlettype" : [ "" ],
					"patching_rect" : [ 825.0, -1.0, 30.0, 30.0 ]
				}

			}
, 			{
				"box" : 				{
					"id" : "obj-11",
					"maxclass" : "message",
					"numinlets" : 2,
					"numoutlets" : 1,
					"outlettype" : [ "" ],
					"patching_rect" : [ 46.0, 281.0, 38.0, 22.0 ],
					"text" : "set 0."
				}

			}
, 			{
				"box" : 				{
					"id" : "obj-7",
					"maxclass" : "newobj",
					"numinlets" : 2,
					"numoutlets" : 2,
					"outlettype" : [ "bang", "" ],
					"patching_rect" : [ 48.0, 505.0, 34.0, 22.0 ],
					"text" : "sel 0"
				}

			}
, 			{
				"box" : 				{
					"comment" : "shiftDirection",
					"id" : "obj-6",
					"index" : 0,
					"maxclass" : "outlet",
					"numinlets" : 1,
					"numoutlets" : 0,
					"patching_rect" : [ 110.0, 695.0, 30.0, 30.0 ]
				}

			}
, 			{
				"box" : 				{
					"fontname" : "Ableton Sans Small",
					"fontsize" : 12.0,
					"id" : "obj-51",
					"maxclass" : "comment",
					"numinlets" : 1,
					"numoutlets" : 0,
					"patching_rect" : [ 1660.80002036690712, 113.400000751018524, 101.0, 21.0 ],
					"presentation" : 1,
					"presentation_rect" : [ 8.0, 0.0, 91.0, 21.0 ],
					"text" : "S H I F T E R",
					"textcolor" : [ 0.835294117647059, 0.603921568627451, 0.011764705882353, 1.0 ],
					"textjustification" : 1
				}

			}
, 			{
				"box" : 				{
					"id" : "obj-4",
					"maxclass" : "newobj",
					"numinlets" : 1,
					"numoutlets" : 2,
					"outlettype" : [ "", "" ],
					"patching_rect" : [ -133.0, 69.0, 67.0, 22.0 ],
					"save" : [ "#N", "thispatcher", ";", "#Q", "end", ";" ],
					"text" : "thispatcher"
				}

			}
, 			{
				"box" : 				{
					"fontname" : "Arial",
					"fontsize" : 11.934730999999999,
					"id" : "obj-9",
					"linecount" : 2,
					"maxclass" : "newobj",
					"numinlets" : 4,
					"numoutlets" : 0,
					"patching_rect" : [ -134.0, 158.0, 121.0, 36.0 ],
					"text" : "bgcolor 0.173 0.161 0.161 1."
				}

			}
, 			{
				"box" : 				{
					"activefgdialcolor" : [ 0.668252052034861, 0.37753979111903, 0.316055506131883, 1.0 ],
					"activeneedlecolor" : [ 0.447518749806177, 0.44751863973454, 0.447518668498017, 1.0 ],
					"annotation" : "Set the LFO shifter frequency",
					"annotation_name" : "MoodSequencer PRO",
					"hint" : "Shifter Frequency",
					"id" : "obj-158",
					"maxclass" : "live.dial",
					"numinlets" : 1,
					"numoutlets" : 2,
					"outlettype" : [ "", "float" ],
					"parameter_enable" : 1,
					"patching_rect" : [ 108.0, 314.0, 44.0, 48.0 ],
					"presentation" : 1,
					"presentation_rect" : [ 20.0, 60.0, 68.0, 48.0 ],
					"prototypename" : "freq",
					"saved_attribute_attributes" : 					{
						"activefgdialcolor" : 						{
							"expression" : "themecolor.live_inactive_automation"
						}
,
						"activeneedlecolor" : 						{
							"expression" : "themecolor.live_focus_frame"
						}
,
						"valueof" : 						{
							"parameter_annotation_name" : "MoodSequencer PRO",
							"parameter_exponent" : 3.333333,
							"parameter_info" : "Set the LFO shifter frequency",
							"parameter_initial" : [ 0 ],
							"parameter_initial_enable" : 1,
							"parameter_linknames" : 1,
							"parameter_longname" : "shiftingHz_#0[1]",
							"parameter_mmax" : 10.0,
							"parameter_modmode" : 0,
							"parameter_shortname" : "Freq",
							"parameter_type" : 0,
							"parameter_unitstyle" : 3
						}

					}
,
					"varname" : "shiftingHz_#0[1]"
				}

			}
, 			{
				"box" : 				{
					"annotation" : "Set the shifter direction",
					"annotation_name" : "MoodSequencer PRO",
					"automation" : "0",
					"automationon" : "1",
					"bgoncolor" : [ 0.945098, 0.67451, 0.0, 1.0 ],
					"bordercolor" : [ 0.945098, 0.67451, 0.0, 1.0 ],
					"focusbordercolor" : [ 0.261531128329206, 0.261531061881087, 0.261531079296546, 1.0 ],
					"hint" : "Shifter direction",
					"id" : "obj-155",
					"maxclass" : "live.text",
					"numinlets" : 1,
					"numoutlets" : 2,
					"outlettype" : [ "", "" ],
					"parameter_enable" : 1,
					"patching_rect" : [ 48.0, 538.0, 46.400000691413879, 13.799999892711639 ],
					"presentation" : 1,
					"presentation_rect" : [ 23.0, 145.0, 60.800000905990601, 17.600000262260437 ],
					"saved_attribute_attributes" : 					{
						"bgoncolor" : 						{
							"expression" : "themecolor.live_value_bar3"
						}
,
						"bordercolor" : 						{
							"expression" : "themecolor.live_value_bar3"
						}
,
						"focusbordercolor" : 						{
							"expression" : "themecolor.live_control_bg"
						}
,
						"valueof" : 						{
							"parameter_annotation_name" : "MoodSequencer PRO",
							"parameter_enum" : [ "0", "1" ],
							"parameter_info" : "Set the shifter direction",
							"parameter_longname" : "btnLatch[3]",
							"parameter_mmax" : 1,
							"parameter_modmode" : 0,
							"parameter_shortname" : "btnShift_#0",
							"parameter_type" : 2
						}

					}
,
					"text" : "Left",
					"texton" : "Right",
					"varname" : "btnLatch[2]"
				}

			}
, 			{
				"box" : 				{
					"annotation" : "Shift sequence Right/Left by LFO Time/Frequency ",
					"annotation_name" : "MoodSequencer PRO",
					"appearance" : 1,
					"automation" : "0",
					"automationon" : "1",
					"bgoncolor" : [ 0.945098, 0.67451, 0.0, 1.0 ],
					"bordercolor" : [ 0.945098, 0.67451, 0.0, 1.0 ],
					"focusbordercolor" : [ 0.261531128329206, 0.261531061881087, 0.261531079296546, 1.0 ],
					"hint" : "Shifter",
					"id" : "obj-154",
					"maxclass" : "live.text",
					"numinlets" : 1,
					"numoutlets" : 2,
					"outlettype" : [ "", "" ],
					"parameter_enable" : 1,
					"patching_rect" : [ 48.0, 475.0, 81.0, 14.0 ],
					"presentation" : 1,
					"presentation_rect" : [ 12.0, 19.0, 71.0, 17.0 ],
					"saved_attribute_attributes" : 					{
						"bgoncolor" : 						{
							"expression" : "themecolor.live_value_bar3"
						}
,
						"bordercolor" : 						{
							"expression" : "themecolor.live_value_bar3"
						}
,
						"focusbordercolor" : 						{
							"expression" : "themecolor.live_control_bg"
						}
,
						"valueof" : 						{
							"parameter_annotation_name" : "MoodSequencer PRO",
							"parameter_enum" : [ "0", "1" ],
							"parameter_info" : "Shift sequence Right/Left by LFO Time/Frequency ",
							"parameter_linknames" : 1,
							"parameter_longname" : "btnShift_#0[1]",
							"parameter_mmax" : 1,
							"parameter_modmode" : 0,
							"parameter_shortname" : "btnShift_#0",
							"parameter_type" : 2
						}

					}
,
					"text" : "Shifter LFO",
					"texton" : "Shifter LFO",
					"varname" : "btnShift_#0[1]"
				}

			}
, 			{
				"box" : 				{
					"id" : "obj-151",
					"maxclass" : "gswitch2",
					"numinlets" : 2,
					"numoutlets" : 2,
					"outlettype" : [ "", "" ],
					"parameter_enable" : 0,
					"patching_rect" : [ 90.0, 577.0, 39.0, 32.0 ]
				}

			}
, 			{
				"box" : 				{
					"id" : "obj-141",
					"maxclass" : "gswitch",
					"numinlets" : 3,
					"numoutlets" : 1,
					"outlettype" : [ "" ],
					"parameter_enable" : 0,
					"patching_rect" : [ 110.0, 509.0, 41.0, 32.0 ]
				}

			}
, 			{
				"box" : 				{
					"bufsize" : 256,
					"calccount" : 4,
					"id" : "obj-140",
					"maxclass" : "scope~",
					"numinlets" : 2,
					"numoutlets" : 0,
					"patching_rect" : [ 80.0, 440.0, 72.0, 22.0 ],
					"presentation" : 1,
					"presentation_rect" : [ 14.0, 112.0, 79.0, 26.0 ]
				}

			}
, 			{
				"box" : 				{
					"fontname" : "Arial",
					"fontsize" : 13.0,
					"id" : "obj-138",
					"maxclass" : "newobj",
					"numinlets" : 1,
					"numoutlets" : 1,
					"outlettype" : [ "bang" ],
					"patcher" : 					{
						"fileversion" : 1,
						"appversion" : 						{
							"major" : 9,
							"minor" : 0,
							"revision" : 9,
							"architecture" : "x64",
							"modernui" : 1
						}
,
						"classnamespace" : "box",
						"rect" : [ 59.0, 137.0, 640.0, 480.0 ],
						"gridsize" : [ 15.0, 15.0 ],
						"boxes" : [ 							{
								"box" : 								{
									"fontname" : "Arial",
									"fontsize" : 13.0,
									"id" : "obj-19",
									"maxclass" : "newobj",
									"numinlets" : 1,
									"numoutlets" : 2,
									"outlettype" : [ "bang", "bang" ],
									"patching_rect" : [ 50.0, 150.0, 48.0, 23.0 ],
									"text" : "edge~"
								}

							}
, 							{
								"box" : 								{
									"fontname" : "Arial",
									"fontsize" : 13.0,
									"id" : "obj-18",
									"maxclass" : "newobj",
									"numinlets" : 2,
									"numoutlets" : 1,
									"outlettype" : [ "signal" ],
									"patching_rect" : [ 50.0, 125.0, 53.0, 23.0 ],
									"text" : "<~ -0.5"
								}

							}
, 							{
								"box" : 								{
									"fontname" : "Arial",
									"fontsize" : 13.0,
									"id" : "obj-17",
									"maxclass" : "newobj",
									"numinlets" : 1,
									"numoutlets" : 1,
									"outlettype" : [ "signal" ],
									"patching_rect" : [ 50.0, 100.0, 47.0, 23.0 ],
									"text" : "delta~"
								}

							}
, 							{
								"box" : 								{
									"comment" : "",
									"id" : "obj-27",
									"index" : 1,
									"maxclass" : "inlet",
									"numinlets" : 0,
									"numoutlets" : 1,
									"outlettype" : [ "signal" ],
									"patching_rect" : [ 50.0, 40.0, 25.0, 25.0 ]
								}

							}
, 							{
								"box" : 								{
									"comment" : "",
									"id" : "obj-28",
									"index" : 1,
									"maxclass" : "outlet",
									"numinlets" : 1,
									"numoutlets" : 0,
									"patching_rect" : [ 50.0, 231.0, 25.0, 25.0 ]
								}

							}
 ],
						"lines" : [ 							{
								"patchline" : 								{
									"destination" : [ "obj-18", 0 ],
									"source" : [ "obj-17", 0 ]
								}

							}
, 							{
								"patchline" : 								{
									"destination" : [ "obj-19", 0 ],
									"source" : [ "obj-18", 0 ]
								}

							}
, 							{
								"patchline" : 								{
									"destination" : [ "obj-28", 0 ],
									"source" : [ "obj-19", 0 ]
								}

							}
, 							{
								"patchline" : 								{
									"destination" : [ "obj-17", 0 ],
									"source" : [ "obj-27", 0 ]
								}

							}
 ]
					}
,
					"patching_rect" : [ 169.0, 435.0, 95.0, 23.0 ],
					"text" : "p detect_edge"
				}

			}
, 			{
				"box" : 				{
					"id" : "obj-139",
					"maxclass" : "button",
					"numinlets" : 1,
					"numoutlets" : 1,
					"outlettype" : [ "bang" ],
					"parameter_enable" : 0,
					"patching_rect" : [ 169.0, 475.0, 24.0, 24.0 ]
				}

			}
, 			{
				"box" : 				{
					"id" : "obj-135",
					"maxclass" : "newobj",
					"numinlets" : 2,
					"numoutlets" : 1,
					"outlettype" : [ "signal" ],
					"patching_rect" : [ 169.0, 390.0, 52.0, 22.0 ],
					"text" : "phasor~"
				}

			}
, 			{
				"box" : 				{
					"fontname" : "Arial",
					"fontsize" : 13.0,
					"id" : "obj-5",
					"maxclass" : "message",
					"numinlets" : 2,
					"numoutlets" : 1,
					"outlettype" : [ "" ],
					"patching_rect" : [ 132.0, 644.0, 34.0, 23.0 ],
					"text" : "right"
				}

			}
, 			{
				"box" : 				{
					"fontname" : "Arial",
					"fontsize" : 13.0,
					"id" : "obj-74",
					"maxclass" : "message",
					"numinlets" : 2,
					"numoutlets" : 1,
					"outlettype" : [ "" ],
					"patching_rect" : [ 90.0, 644.0, 32.5, 23.0 ],
					"text" : "left"
				}

			}
, 			{
				"box" : 				{
					"comment" : "Modulation 2 Data",
					"id" : "obj-3",
					"index" : 0,
					"maxclass" : "inlet",
					"numinlets" : 0,
					"numoutlets" : 1,
					"outlettype" : [ "" ],
					"patching_rect" : [ 630.0, 4.0, 30.0, 30.0 ]
				}

			}
, 			{
				"box" : 				{
					"comment" : "Modulation 1 Data",
					"id" : "obj-2",
					"index" : 0,
					"maxclass" : "inlet",
					"numinlets" : 0,
					"numoutlets" : 1,
					"outlettype" : [ "" ],
					"patching_rect" : [ 451.0, 4.0, 30.0, 30.0 ]
				}

			}
, 			{
				"box" : 				{
					"comment" : "Velocity Data",
					"id" : "obj-1",
					"index" : 0,
					"maxclass" : "inlet",
					"numinlets" : 0,
					"numoutlets" : 1,
					"outlettype" : [ "" ],
					"patching_rect" : [ 282.0, -2.0, 30.0, 30.0 ]
				}

			}
, 			{
				"box" : 				{
					"id" : "obj-213",
					"maxclass" : "comment",
					"numinlets" : 1,
					"numoutlets" : 0,
					"patching_rect" : [ 314.0, 3.0, 150.0, 20.0 ],
					"text" : "MAP VELOCITY"
				}

			}
, 			{
				"box" : 				{
					"angle" : 270.0,
					"bgcolor" : [ 0.196078431372549, 0.196078431372549, 0.196078431372549, 1.0 ],
					"id" : "obj-8",
					"maxclass" : "panel",
					"mode" : 0,
					"numinlets" : 1,
					"numoutlets" : 0,
					"patching_rect" : [ 1155.0, 271.0, 128.0, 128.0 ],
					"presentation" : 1,
					"presentation_rect" : [ 7.9000004529953, 204.0, 91.0, 151.0 ],
					"proportion" : 0.39
				}

			}
, 			{
				"box" : 				{
					"angle" : 270.0,
					"bgcolor" : [ 0.196078431372549, 0.196078431372549, 0.196078431372549, 1.0 ],
					"id" : "obj-10",
					"maxclass" : "panel",
					"mode" : 0,
					"numinlets" : 1,
					"numoutlets" : 0,
					"patching_rect" : [ 1287.0, 271.0, 128.0, 128.0 ],
					"presentation" : 1,
					"presentation_rect" : [ 100.5, 204.0, 177.0, 151.0 ],
					"proportion" : 0.39
				}

			}
 ],
		"lines" : [ 			{
				"patchline" : 				{
					"destination" : [ "obj-39", 0 ],
					"source" : [ "obj-1", 0 ]
				}

			}
, 			{
				"patchline" : 				{
					"destination" : [ "obj-158", 0 ],
					"source" : [ "obj-11", 0 ]
				}

			}
, 			{
				"patchline" : 				{
					"destination" : [ "obj-138", 0 ],
					"order" : 0,
					"source" : [ "obj-135", 0 ]
				}

			}
, 			{
				"patchline" : 				{
					"destination" : [ "obj-140", 0 ],
					"order" : 1,
					"source" : [ "obj-135", 0 ]
				}

			}
, 			{
				"patchline" : 				{
					"destination" : [ "obj-139", 0 ],
					"order" : 0,
					"source" : [ "obj-138", 0 ]
				}

			}
, 			{
				"patchline" : 				{
					"destination" : [ "obj-15", 0 ],
					"order" : 1,
					"source" : [ "obj-138", 0 ]
				}

			}
, 			{
				"patchline" : 				{
					"destination" : [ "obj-141", 2 ],
					"source" : [ "obj-139", 0 ]
				}

			}
, 			{
				"patchline" : 				{
					"destination" : [ "obj-151", 1 ],
					"source" : [ "obj-141", 0 ]
				}

			}
, 			{
				"patchline" : 				{
					"destination" : [ "obj-5", 0 ],
					"midpoints" : [ 119.5, 627.499989569187164, 141.5, 627.499989569187164 ],
					"source" : [ "obj-151", 1 ]
				}

			}
, 			{
				"patchline" : 				{
					"destination" : [ "obj-74", 0 ],
					"source" : [ "obj-151", 0 ]
				}

			}
, 			{
				"patchline" : 				{
					"destination" : [ "obj-141", 0 ],
					"order" : 0,
					"source" : [ "obj-154", 0 ]
				}

			}
, 			{
				"patchline" : 				{
					"destination" : [ "obj-7", 0 ],
					"order" : 1,
					"source" : [ "obj-154", 0 ]
				}

			}
, 			{
				"patchline" : 				{
					"destination" : [ "obj-151", 0 ],
					"source" : [ "obj-155", 0 ]
				}

			}
, 			{
				"patchline" : 				{
					"destination" : [ "obj-135", 0 ],
					"source" : [ "obj-158", 0 ]
				}

			}
, 			{
				"patchline" : 				{
					"destination" : [ "obj-33", 0 ],
					"source" : [ "obj-2", 0 ]
				}

			}
, 			{
				"patchline" : 				{
					"destination" : [ "obj-24", 0 ],
					"source" : [ "obj-23", 0 ]
				}

			}
, 			{
				"patchline" : 				{
					"destination" : [ "obj-158", 0 ],
					"source" : [ "obj-25", 0 ]
				}

			}
, 			{
				"patchline" : 				{
					"destination" : [ "obj-30", 0 ],
					"source" : [ "obj-28", 0 ]
				}

			}
, 			{
				"patchline" : 				{
					"destination" : [ "obj-50", 0 ],
					"source" : [ "obj-3", 0 ]
				}

			}
, 			{
				"patchline" : 				{
					"destination" : [ "obj-38", 0 ],
					"source" : [ "obj-31", 0 ]
				}

			}
, 			{
				"patchline" : 				{
					"destination" : [ "obj-45", 0 ],
					"source" : [ "obj-34", 0 ]
				}

			}
, 			{
				"patchline" : 				{
					"destination" : [ "obj-48", 0 ],
					"source" : [ "obj-35", 0 ]
				}

			}
, 			{
				"patchline" : 				{
					"destination" : [ "obj-35", 0 ],
					"source" : [ "obj-38", 0 ]
				}

			}
, 			{
				"patchline" : 				{
					"destination" : [ "obj-57", 0 ],
					"source" : [ "obj-38", 1 ]
				}

			}
, 			{
				"patchline" : 				{
					"destination" : [ "obj-58", 0 ],
					"source" : [ "obj-46", 0 ]
				}

			}
, 			{
				"patchline" : 				{
					"destination" : [ "obj-23", 0 ],
					"midpoints" : [ 511.5, 586.0, 392.5, 586.0 ],
					"order" : 2,
					"source" : [ "obj-47", 0 ]
				}

			}
, 			{
				"patchline" : 				{
					"destination" : [ "obj-59", 0 ],
					"order" : 1,
					"source" : [ "obj-47", 0 ]
				}

			}
, 			{
				"patchline" : 				{
					"destination" : [ "obj-60", 0 ],
					"midpoints" : [ 511.5, 586.0, 577.5, 586.0 ],
					"order" : 0,
					"source" : [ "obj-47", 0 ]
				}

			}
, 			{
				"patchline" : 				{
					"destination" : [ "obj-57", 0 ],
					"source" : [ "obj-48", 1 ]
				}

			}
, 			{
				"patchline" : 				{
					"destination" : [ "obj-6", 0 ],
					"source" : [ "obj-5", 0 ]
				}

			}
, 			{
				"patchline" : 				{
					"destination" : [ "obj-58", 0 ],
					"source" : [ "obj-56", 0 ]
				}

			}
, 			{
				"patchline" : 				{
					"destination" : [ "obj-47", 0 ],
					"source" : [ "obj-57", 0 ]
				}

			}
, 			{
				"patchline" : 				{
					"destination" : [ "obj-47", 0 ],
					"midpoints" : [ 657.5, 271.5, 511.5, 271.5 ],
					"source" : [ "obj-58", 0 ]
				}

			}
, 			{
				"patchline" : 				{
					"destination" : [ "obj-54", 1 ],
					"source" : [ "obj-59", 0 ]
				}

			}
, 			{
				"patchline" : 				{
					"destination" : [ "obj-63", 0 ],
					"source" : [ "obj-60", 0 ]
				}

			}
, 			{
				"patchline" : 				{
					"destination" : [ "obj-65", 0 ],
					"source" : [ "obj-63", 0 ]
				}

			}
, 			{
				"patchline" : 				{
					"destination" : [ "obj-158", 0 ],
					"source" : [ "obj-66", 0 ]
				}

			}
, 			{
				"patchline" : 				{
					"destination" : [ "obj-11", 0 ],
					"midpoints" : [ 57.5, 537.999989569187164, 23.700000584125519, 537.999989569187164, 23.700000584125519, 260.999989569187164, 55.5, 260.999989569187164 ],
					"order" : 0,
					"source" : [ "obj-7", 0 ]
				}

			}
, 			{
				"patchline" : 				{
					"destination" : [ "obj-28", 0 ],
					"order" : 1,
					"source" : [ "obj-7", 0 ]
				}

			}
, 			{
				"patchline" : 				{
					"destination" : [ "obj-6", 0 ],
					"source" : [ "obj-74", 0 ]
				}

			}
 ],
		"parameters" : 		{
			"obj-154" : [ "btnShift_#0[1]", "btnShift_#0", 0 ],
			"obj-155" : [ "btnLatch[3]", "btnShift_#0", 0 ],
			"obj-158" : [ "shiftingHz_#0[1]", "Freq", 0 ],
			"obj-15::obj-30" : [ "live.dial[1]", "live.dial[1]", 0 ],
			"obj-15::obj-34" : [ "border[4]", "border", 0 ],
			"obj-15::obj-45" : [ "TargetMax[4]", "Max", 0 ],
			"obj-15::obj-46" : [ "TargetMin[4]", "Min", 0 ],
			"obj-15::obj-47" : [ "Unmap[4]", "Unmap", 0 ],
			"obj-15::obj-48" : [ "Map[4]", "Map", 0 ],
			"obj-33::obj-30" : [ "live.dial[4]", "live.dial[1]", 0 ],
			"obj-33::obj-34" : [ "border[1]", "border", 0 ],
			"obj-33::obj-45" : [ "TargetMax[1]", "Max", 0 ],
			"obj-33::obj-46" : [ "TargetMin[1]", "Min", 0 ],
			"obj-33::obj-47" : [ "Unmap[1]", "Unmap", 0 ],
			"obj-33::obj-48" : [ "Map[1]", "Map", 0 ],
			"obj-39::obj-30" : [ "live.dial[3]", "live.dial[1]", 0 ],
			"obj-39::obj-34" : [ "border[2]", "border", 0 ],
			"obj-39::obj-45" : [ "TargetMax[2]", "Max", 0 ],
			"obj-39::obj-46" : [ "TargetMin[2]", "Min", 0 ],
			"obj-39::obj-47" : [ "Unmap[2]", "Unmap", 0 ],
			"obj-39::obj-48" : [ "Map[2]", "Map", 0 ],
			"obj-50::obj-30" : [ "live.dial[5]", "live.dial[1]", 0 ],
			"obj-50::obj-34" : [ "border[3]", "border", 0 ],
			"obj-50::obj-45" : [ "TargetMax[3]", "Max", 0 ],
			"obj-50::obj-46" : [ "TargetMin[3]", "Min", 0 ],
			"obj-50::obj-47" : [ "Unmap[3]", "Unmap", 0 ],
			"obj-50::obj-48" : [ "Map[3]", "Map", 0 ],
			"parameter_overrides" : 			{
				"obj-15::obj-34" : 				{
					"parameter_longname" : "border[4]"
				}
,
				"obj-15::obj-45" : 				{
					"parameter_longname" : "TargetMax[4]"
				}
,
				"obj-15::obj-46" : 				{
					"parameter_longname" : "TargetMin[4]"
				}
,
				"obj-15::obj-47" : 				{
					"parameter_longname" : "Unmap[4]"
				}
,
				"obj-15::obj-48" : 				{
					"parameter_longname" : "Map[4]"
				}
,
				"obj-33::obj-30" : 				{
					"parameter_longname" : "live.dial[4]"
				}
,
				"obj-39::obj-30" : 				{
					"parameter_longname" : "live.dial[3]"
				}
,
				"obj-39::obj-34" : 				{
					"parameter_longname" : "border[2]"
				}
,
				"obj-39::obj-45" : 				{
					"parameter_longname" : "TargetMax[2]"
				}
,
				"obj-39::obj-46" : 				{
					"parameter_longname" : "TargetMin[2]"
				}
,
				"obj-39::obj-47" : 				{
					"parameter_longname" : "Unmap[2]"
				}
,
				"obj-39::obj-48" : 				{
					"parameter_longname" : "Map[2]"
				}
,
				"obj-50::obj-30" : 				{
					"parameter_longname" : "live.dial[5]"
				}
,
				"obj-50::obj-34" : 				{
					"parameter_longname" : "border[3]"
				}
,
				"obj-50::obj-45" : 				{
					"parameter_longname" : "TargetMax[3]"
				}
,
				"obj-50::obj-46" : 				{
					"parameter_longname" : "TargetMin[3]"
				}
,
				"obj-50::obj-47" : 				{
					"parameter_longname" : "Unmap[3]"
				}
,
				"obj-50::obj-48" : 				{
					"parameter_longname" : "Map[3]"
				}

			}
,
			"inherited_shortname" : 1
		}
,
		"dependency_cache" : [ 			{
				"name" : "UniversalSingleMapper.maxpat",
				"bootpath" : "N:/Ableton/User Library/Presets/MIDI Effects/Max MIDI Effect/Flux",
				"patcherrelativepath" : ".",
				"type" : "JSON",
				"implicit" : 1
			}
, 			{
				"name" : "multimap-unmap.svg",
				"bootpath" : "C74:/packages/Max for Live/media",
				"type" : "svg",
				"implicit" : 1
			}
 ],
		"autosave" : 0,
		"bgcolor" : [ 0.173, 0.161, 0.161, 1.0 ],
		"oscreceiveudpport" : 0
	}

}
