{
	"patcher" : 	{
		"fileversion" : 1,
		"appversion" : 		{
			"major" : 9,
			"minor" : 0,
			"revision" : 9,
			"architecture" : "x64",
			"modernui" : 1
		}
,
		"classnamespace" : "box",
		"rect" : [ 33.0, 100.0, 1277.0, 804.0 ],
		"openinpresentation" : 1,
		"gridsize" : [ 15.0, 15.0 ],
		"boxes" : [ 			{
				"box" : 				{
					"id" : "obj-7",
					"maxclass" : "newobj",
					"numinlets" : 1,
					"numoutlets" : 1,
					"outlettype" : [ "" ],
					"patching_rect" : [ -199.5, 502.0, 99.0, 22.0 ],
					"text" : "prepend unitruler"
				}

			}
, 			{
				"box" : 				{
					"activebgcolor" : [ 0.258823529411765, 0.258823529411765, 0.258823529411765, 0.0 ],
					"activebgoncolor" : [ 0.835294117647059, 0.603921568627451, 0.011764705882353, 0.0 ],
					"activetextoncolor" : [ 0.835294117647059, 0.603921568627451, 0.011764705882353, 1.0 ],
					"bgcolor" : [ 0.258823529411765, 0.258823529411765, 0.258823529411765, 0.0 ],
					"bgoncolor" : [ 0.654901960784314, 0.654901960784314, 0.654901960784314, 0.0 ],
					"bordercolor" : [ 0.082352941176471, 0.082352941176471, 0.082352941176471, 0.0 ],
					"focusbordercolor" : [ 0.776470588235294, 0.776470588235294, 0.776470588235294, 0.0 ],
					"hint" : "Ruler",
					"id" : "obj-6",
					"maxclass" : "live.text",
					"numinlets" : 1,
					"numoutlets" : 2,
					"outlettype" : [ "", "" ],
					"parameter_enable" : 1,
					"patching_rect" : [ -199.5, 453.0, 33.0, 20.0 ],
					"pictures" : [ "piano.svg", "piano.svg" ],
					"presentation" : 1,
					"presentation_rect" : [ 114.0, 129.5, 33.0, 20.0 ],
					"remapsvgcolors" : 1,
					"saved_attribute_attributes" : 					{
						"activebgcolor" : 						{
							"expression" : ""
						}
,
						"activebgoncolor" : 						{
							"expression" : ""
						}
,
						"activetextoncolor" : 						{
							"expression" : ""
						}
,
						"bgcolor" : 						{
							"expression" : ""
						}
,
						"bgoncolor" : 						{
							"expression" : ""
						}
,
						"bordercolor" : 						{
							"expression" : ""
						}
,
						"focusbordercolor" : 						{
							"expression" : ""
						}
,
						"valueof" : 						{
							"parameter_enum" : [ "val1", "val2" ],
							"parameter_longname" : "live.text",
							"parameter_mmax" : 1,
							"parameter_modmode" : 0,
							"parameter_shortname" : "live.text",
							"parameter_type" : 2
						}

					}
,
					"usepicture" : 1,
					"varname" : "live.text"
				}

			}
, 			{
				"box" : 				{
					"fontsize" : 22.0,
					"id" : "obj-25",
					"maxclass" : "newobj",
					"numinlets" : 0,
					"numoutlets" : 1,
					"outlettype" : [ "" ],
					"patching_rect" : [ 81.0, 255.0, 210.0, 34.0 ],
					"text" : "r ---STEPCOUNTER"
				}

			}
, 			{
				"box" : 				{
					"id" : "obj-16",
					"maxclass" : "message",
					"numinlets" : 2,
					"numoutlets" : 1,
					"outlettype" : [ "" ],
					"patching_rect" : [ 462.0, 554.0, 50.0, 22.0 ],
					"text" : "1"
				}

			}
, 			{
				"box" : 				{
					"color" : [ 0.27843137254902, 0.92156862745098, 0.63921568627451, 1.0 ],
					"fontsize" : 10.0,
					"id" : "obj-44",
					"maxclass" : "newobj",
					"numinlets" : 0,
					"numoutlets" : 1,
					"outlettype" : [ "" ],
					"patching_rect" : [ -316.0, 221.0, 59.0, 20.0 ],
					"text" : "r ---ctrlUPD"
				}

			}
, 			{
				"box" : 				{
					"id" : "obj-43",
					"maxclass" : "newobj",
					"numinlets" : 1,
					"numoutlets" : 0,
					"patching_rect" : [ -225.0, 271.0, 32.0, 22.0 ],
					"text" : "print"
				}

			}
, 			{
				"box" : 				{
					"id" : "obj-41",
					"maxclass" : "newobj",
					"numinlets" : 1,
					"numoutlets" : 0,
					"patching_rect" : [ -316.0, 386.0, 66.0, 22.0 ],
					"text" : "print SAVE"
				}

			}
, 			{
				"box" : 				{
					"color" : [ 0.803921568627451, 0.035294117647059, 0.035294117647059, 1.0 ],
					"id" : "obj-38",
					"maxclass" : "newobj",
					"numinlets" : 0,
					"numoutlets" : 1,
					"outlettype" : [ "" ],
					"patching_rect" : [ -225.0, 220.0, 98.0, 22.0 ],
					"text" : "r ---stepUPDATE"
				}

			}
, 			{
				"box" : 				{
					"id" : "obj-15",
					"maxclass" : "message",
					"numinlets" : 2,
					"numoutlets" : 1,
					"outlettype" : [ "" ],
					"patching_rect" : [ -316.0, 311.0, 154.0, 22.0 ],
					"text" : "target_seq 0, dump_to_dict"
				}

			}
, 			{
				"box" : 				{
					"id" : "obj-1",
					"maxclass" : "newobj",
					"numinlets" : 1,
					"numoutlets" : 2,
					"outlettype" : [ "bang", "" ],
					"patching_rect" : [ -316.0, 276.0, 29.5, 22.0 ],
					"text" : "t b l"
				}

			}
, 			{
				"box" : 				{
					"id" : "obj-14",
					"maxclass" : "newobj",
					"numinlets" : 1,
					"numoutlets" : 2,
					"outlettype" : [ "bang", "" ],
					"patching_rect" : [ 708.5, 215.0, 31.0, 22.0 ],
					"text" : "t b s"
				}

			}
, 			{
				"box" : 				{
					"id" : "obj-13",
					"maxclass" : "message",
					"numinlets" : 2,
					"numoutlets" : 1,
					"outlettype" : [ "" ],
					"patching_rect" : [ 708.5, 261.0, 65.0, 22.0 ],
					"text" : "getvelocity"
				}

			}
, 			{
				"box" : 				{
					"comment" : "Dump Data",
					"id" : "obj-5",
					"index" : 0,
					"maxclass" : "outlet",
					"numinlets" : 1,
					"numoutlets" : 0,
					"patching_rect" : [ 423.0, 671.0, 30.0, 30.0 ]
				}

			}
, 			{
				"box" : 				{
					"id" : "obj-4",
					"maxclass" : "newobj",
					"numinlets" : 1,
					"numoutlets" : 1,
					"outlettype" : [ "" ],
					"patching_rect" : [ 702.0, 163.0, 78.0, 22.0 ],
					"text" : "sprintf get%s"
				}

			}
, 			{
				"box" : 				{
					"comment" : "Sequence Get",
					"id" : "obj-3",
					"index" : 0,
					"maxclass" : "inlet",
					"numinlets" : 0,
					"numoutlets" : 1,
					"outlettype" : [ "" ],
					"patching_rect" : [ 702.0, 59.0, 30.0, 30.0 ]
				}

			}
, 			{
				"box" : 				{
					"id" : "obj-121",
					"maxclass" : "message",
					"numinlets" : 2,
					"numoutlets" : 1,
					"outlettype" : [ "" ],
					"patching_rect" : [ 788.0, 154.0, 50.0, 22.0 ],
					"text" : "right"
				}

			}
, 			{
				"box" : 				{
					"downarrow" : 0,
					"id" : "obj-59",
					"maxclass" : "live.arrows",
					"numinlets" : 1,
					"numoutlets" : 1,
					"outlettype" : [ "" ],
					"parameter_enable" : 1,
					"patching_rect" : [ 788.0, 115.0, 34.0, 15.0 ],
					"presentation" : 1,
					"presentation_rect" : [ 149.0, 132.0, 34.0, 15.0 ],
					"saved_attribute_attributes" : 					{
						"valueof" : 						{
							"parameter_enum" : [ "off", "left", "up", "down", "right" ],
							"parameter_longname" : "Shift",
							"parameter_mmax" : 4,
							"parameter_modmode" : 0,
							"parameter_order" : 25,
							"parameter_osc_enabled" : 1,
							"parameter_osc_name" : "Shift",
							"parameter_osc_valuemode" : 3,
							"parameter_shortname" : "Shift",
							"parameter_type" : 2
						}

					}
,
					"uparrow" : 0,
					"varname" : "Shift"
				}

			}
, 			{
				"box" : 				{
					"comment" : "",
					"id" : "obj-2",
					"index" : 0,
					"maxclass" : "outlet",
					"numinlets" : 1,
					"numoutlets" : 0,
					"patching_rect" : [ -23.0, 562.0, 30.0, 30.0 ]
				}

			}
, 			{
				"box" : 				{
					"id" : "obj-174",
					"linecount" : 2,
					"maxclass" : "newobj",
					"numinlets" : 1,
					"numoutlets" : 1,
					"outlettype" : [ "" ],
					"patching_rect" : [ -120.5, 112.0, 79.0, 36.0 ],
					"text" : "prepend display_seq"
				}

			}
, 			{
				"box" : 				{
					"id" : "obj-171",
					"linecount" : 3,
					"maxclass" : "newobj",
					"numinlets" : 1,
					"numoutlets" : 1,
					"outlettype" : [ "" ],
					"patching_rect" : [ -23.0, 112.0, 98.0, 50.0 ],
					"text" : "sprintf target_seq %s\\, next\\, active 1"
				}

			}
, 			{
				"box" : 				{
					"comment" : "",
					"id" : "obj-65",
					"index" : 0,
					"maxclass" : "outlet",
					"numinlets" : 1,
					"numoutlets" : 0,
					"patching_rect" : [ 72.75, 562.0, 30.0, 30.0 ]
				}

			}
, 			{
				"box" : 				{
					"id" : "obj-51",
					"maxclass" : "newobj",
					"numinlets" : 0,
					"numoutlets" : 1,
					"outlettype" : [ "" ],
					"patching_rect" : [ 265.0, 635.0, 104.0, 22.0 ],
					"text" : "r ---stepDictionary"
				}

			}
, 			{
				"box" : 				{
					"comment" : "Dump Dictionary",
					"id" : "obj-50",
					"index" : 0,
					"maxclass" : "outlet",
					"numinlets" : 1,
					"numoutlets" : 0,
					"patching_rect" : [ 265.0, 671.0, 30.0, 30.0 ]
				}

			}
, 			{
				"box" : 				{
					"id" : "obj-49",
					"maxclass" : "newobj",
					"numinlets" : 1,
					"numoutlets" : 0,
					"patching_rect" : [ 265.0, 597.0, 106.0, 22.0 ],
					"text" : "s ---stepDictionary"
				}

			}
, 			{
				"box" : 				{
					"id" : "obj-48",
					"maxclass" : "newobj",
					"numinlets" : 1,
					"numoutlets" : 1,
					"outlettype" : [ "" ],
					"patching_rect" : [ 265.0, 566.0, 107.0, 22.0 ],
					"text" : "prepend dictionary"
				}

			}
, 			{
				"box" : 				{
					"id" : "obj-47",
					"maxclass" : "newobj",
					"numinlets" : 2,
					"numoutlets" : 2,
					"outlettype" : [ "", "" ],
					"patching_rect" : [ 265.0, 534.0, 91.0, 22.0 ],
					"text" : "route dictionary"
				}

			}
, 			{
				"box" : 				{
					"comment" : "Sequence Data",
					"id" : "obj-46",
					"index" : 0,
					"maxclass" : "inlet",
					"numinlets" : 0,
					"numoutlets" : 1,
					"outlettype" : [ "" ],
					"patching_rect" : [ -165.0, 42.0, 30.0, 30.0 ]
				}

			}
, 			{
				"box" : 				{
					"id" : "obj-40",
					"maxclass" : "message",
					"numinlets" : 2,
					"numoutlets" : 1,
					"outlettype" : [ "" ],
					"patching_rect" : [ 629.0, 163.0, 57.0, 22.0 ],
					"text" : "scramble"
				}

			}
, 			{
				"box" : 				{
					"comment" : "Sequence Scramble",
					"id" : "obj-37",
					"index" : 0,
					"maxclass" : "inlet",
					"numinlets" : 0,
					"numoutlets" : 1,
					"outlettype" : [ "" ],
					"patching_rect" : [ 629.0, 54.0, 30.0, 30.0 ]
				}

			}
, 			{
				"box" : 				{
					"id" : "obj-35",
					"maxclass" : "newobj",
					"numinlets" : 1,
					"numoutlets" : 0,
					"patching_rect" : [ 509.0, 163.0, 109.0, 22.0 ],
					"text" : "s ---stepTranspose"
				}

			}
, 			{
				"box" : 				{
					"comment" : "Sequence Transpose",
					"id" : "obj-33",
					"index" : 0,
					"maxclass" : "inlet",
					"numinlets" : 0,
					"numoutlets" : 1,
					"outlettype" : [ "" ],
					"patching_rect" : [ 509.0, 54.0, 30.0, 30.0 ]
				}

			}
, 			{
				"box" : 				{
					"comment" : "Sequence No",
					"id" : "obj-31",
					"index" : 0,
					"maxclass" : "inlet",
					"numinlets" : 0,
					"numoutlets" : 1,
					"outlettype" : [ "" ],
					"patching_rect" : [ -96.0, 33.0, 30.0, 30.0 ]
				}

			}
, 			{
				"box" : 				{
					"id" : "obj-30",
					"maxclass" : "newobj",
					"numinlets" : 1,
					"numoutlets" : 1,
					"outlettype" : [ "" ],
					"patching_rect" : [ 394.0, 163.0, 101.0, 22.0 ],
					"text" : "prepend direction"
				}

			}
, 			{
				"box" : 				{
					"comment" : "Sequence Direction",
					"id" : "obj-29",
					"index" : 0,
					"maxclass" : "inlet",
					"numinlets" : 0,
					"numoutlets" : 1,
					"outlettype" : [ "" ],
					"patching_rect" : [ 394.0, 51.0, 30.0, 30.0 ]
				}

			}
, 			{
				"box" : 				{
					"id" : "obj-28",
					"maxclass" : "newobj",
					"numinlets" : 1,
					"numoutlets" : 0,
					"patching_rect" : [ 284.0, 147.0, 79.0, 22.0 ],
					"text" : "s ---stepTime"
				}

			}
, 			{
				"box" : 				{
					"comment" : "Sequence Time",
					"id" : "obj-27",
					"index" : 0,
					"maxclass" : "inlet",
					"numinlets" : 0,
					"numoutlets" : 1,
					"outlettype" : [ "" ],
					"patching_rect" : [ 284.0, 51.0, 30.0, 30.0 ]
				}

			}
, 			{
				"box" : 				{
					"comment" : "Sequence Loop n n",
					"id" : "obj-23",
					"index" : 0,
					"maxclass" : "inlet",
					"numinlets" : 0,
					"numoutlets" : 1,
					"outlettype" : [ "" ],
					"patching_rect" : [ 186.0, 51.0, 30.0, 30.0 ]
				}

			}
, 			{
				"box" : 				{
					"id" : "obj-21",
					"maxclass" : "newobj",
					"numinlets" : 1,
					"numoutlets" : 1,
					"outlettype" : [ "" ],
					"patching_rect" : [ 90.0, 154.0, 85.0, 22.0 ],
					"text" : "prepend nstep"
				}

			}
, 			{
				"box" : 				{
					"comment" : "Sequence Steps",
					"id" : "obj-19",
					"index" : 0,
					"maxclass" : "inlet",
					"numinlets" : 0,
					"numoutlets" : 1,
					"outlettype" : [ "" ],
					"patching_rect" : [ 90.0, 45.0, 30.0, 30.0 ]
				}

			}
, 			{
				"box" : 				{
					"id" : "obj-9",
					"maxclass" : "newobj",
					"numinlets" : 0,
					"numoutlets" : 1,
					"outlettype" : [ "" ],
					"patching_rect" : [ -284.0, 49.0, 75.0, 22.0 ],
					"text" : "r ---stepNext"
				}

			}
, 			{
				"box" : 				{
					"bgcolor" : [ 0.196078431372549, 0.196078431372549, 0.196078431372549, 1.0 ],
					"bgcolor2" : [ 0.082352941176471, 0.082352941176471, 0.082352941176471, 1.0 ],
					"bgrulercolor" : [ 0.082352941176471, 0.082352941176471, 0.082352941176471, 1.0 ],
					"bgunitcolor" : [ 0.082352941176471, 0.082352941176471, 0.082352941176471, 1.0 ],
					"hbgcolor" : [ 0.415686274509804, 0.498039215686275, 0.270588235294118, 0.53 ],
					"id" : "obj-34",
					"maxclass" : "live.step",
					"mode" : 1,
					"nseq" : 16,
					"numinlets" : 1,
					"numoutlets" : 5,
					"outlettype" : [ "", "", "", "", "" ],
					"parameter_enable" : 1,
					"patching_rect" : [ -23.0, 366.0, 402.0, 158.0 ],
					"presentation" : 1,
					"presentation_rect" : [ 0.0, 0.0, 332.0, 130.0 ],
					"saved_attribute_attributes" : 					{
						"bgrulercolor" : 						{
							"expression" : "themecolor.live_contrast_frame"
						}
,
						"bgunitcolor" : 						{
							"expression" : "themecolor.live_contrast_frame"
						}
,
						"valueof" : 						{
							"parameter_invisible" : 1,
							"parameter_longname" : "SharedStep",
							"parameter_modmode" : 0,
							"parameter_order" : 99,
							"parameter_shortname" : "SharedStep",
							"parameter_type" : 3
						}

					}
,
					"stepcolor" : [ 0.643137254901961, 0.690196078431373, 0.105882352941176, 1.0 ],
					"stepcolor2" : [ 0.27843137254902, 0.796078431372549, 0.92156862745098, 1.0 ],
					"unitruler" : 0,
					"varname" : "SharedStep"
				}

			}
 ],
		"lines" : [ 			{
				"patchline" : 				{
					"destination" : [ "obj-15", 0 ],
					"source" : [ "obj-1", 0 ]
				}

			}
, 			{
				"patchline" : 				{
					"destination" : [ "obj-34", 0 ],
					"midpoints" : [ 797.5, 201.636367797851562, -13.5, 201.636367797851562 ],
					"source" : [ "obj-121", 0 ]
				}

			}
, 			{
				"patchline" : 				{
					"destination" : [ "obj-34", 0 ],
					"midpoints" : [ 718.0, 349.95452880859375, -13.5, 349.95452880859375 ],
					"source" : [ "obj-13", 0 ]
				}

			}
, 			{
				"patchline" : 				{
					"destination" : [ "obj-13", 0 ],
					"source" : [ "obj-14", 0 ]
				}

			}
, 			{
				"patchline" : 				{
					"destination" : [ "obj-34", 0 ],
					"midpoints" : [ -306.5, 342.5, -13.5, 342.5 ],
					"order" : 0,
					"source" : [ "obj-15", 0 ]
				}

			}
, 			{
				"patchline" : 				{
					"destination" : [ "obj-41", 0 ],
					"order" : 1,
					"source" : [ "obj-15", 0 ]
				}

			}
, 			{
				"patchline" : 				{
					"destination" : [ "obj-34", 0 ],
					"midpoints" : [ -13.5, 221.5, -13.5, 221.5 ],
					"source" : [ "obj-171", 0 ]
				}

			}
, 			{
				"patchline" : 				{
					"destination" : [ "obj-34", 0 ],
					"midpoints" : [ -111.0, 187.227279663085938, -13.5, 187.227279663085938 ],
					"source" : [ "obj-174", 0 ]
				}

			}
, 			{
				"patchline" : 				{
					"destination" : [ "obj-21", 0 ],
					"source" : [ "obj-19", 0 ]
				}

			}
, 			{
				"patchline" : 				{
					"color" : [ 0.803921568627451, 0.035294117647059, 0.035294117647059, 1.0 ],
					"destination" : [ "obj-34", 0 ],
					"midpoints" : [ 99.5, 213.5, -13.5, 213.5 ],
					"source" : [ "obj-21", 0 ]
				}

			}
, 			{
				"patchline" : 				{
					"color" : [ 0.803921568627451, 0.035294117647059, 0.035294117647059, 1.0 ],
					"destination" : [ "obj-34", 0 ],
					"midpoints" : [ 195.5, 212.590911865234375, -13.5, 212.590911865234375 ],
					"source" : [ "obj-23", 0 ]
				}

			}
, 			{
				"patchline" : 				{
					"destination" : [ "obj-34", 0 ],
					"source" : [ "obj-25", 0 ]
				}

			}
, 			{
				"patchline" : 				{
					"destination" : [ "obj-28", 0 ],
					"source" : [ "obj-27", 0 ]
				}

			}
, 			{
				"patchline" : 				{
					"destination" : [ "obj-30", 0 ],
					"source" : [ "obj-29", 0 ]
				}

			}
, 			{
				"patchline" : 				{
					"destination" : [ "obj-4", 0 ],
					"source" : [ "obj-3", 0 ]
				}

			}
, 			{
				"patchline" : 				{
					"color" : [ 0.803921568627451, 0.035294117647059, 0.035294117647059, 1.0 ],
					"destination" : [ "obj-34", 0 ],
					"midpoints" : [ 403.5, 213.5, -13.5, 213.5 ],
					"source" : [ "obj-30", 0 ]
				}

			}
, 			{
				"patchline" : 				{
					"destination" : [ "obj-171", 0 ],
					"midpoints" : [ -86.5, 87.5, -13.5, 87.5 ],
					"order" : 0,
					"source" : [ "obj-31", 0 ]
				}

			}
, 			{
				"patchline" : 				{
					"destination" : [ "obj-174", 0 ],
					"midpoints" : [ -86.5, 87.5, -111.0, 87.5 ],
					"order" : 1,
					"source" : [ "obj-31", 0 ]
				}

			}
, 			{
				"patchline" : 				{
					"destination" : [ "obj-35", 0 ],
					"source" : [ "obj-33", 0 ]
				}

			}
, 			{
				"patchline" : 				{
					"destination" : [ "obj-16", 1 ],
					"source" : [ "obj-34", 4 ]
				}

			}
, 			{
				"patchline" : 				{
					"destination" : [ "obj-2", 0 ],
					"source" : [ "obj-34", 0 ]
				}

			}
, 			{
				"patchline" : 				{
					"destination" : [ "obj-47", 0 ],
					"order" : 1,
					"source" : [ "obj-34", 3 ]
				}

			}
, 			{
				"patchline" : 				{
					"destination" : [ "obj-5", 0 ],
					"midpoints" : [ 273.75, 531.1363525390625, 432.5, 531.1363525390625 ],
					"order" : 0,
					"source" : [ "obj-34", 3 ]
				}

			}
, 			{
				"patchline" : 				{
					"destination" : [ "obj-65", 0 ],
					"source" : [ "obj-34", 1 ]
				}

			}
, 			{
				"patchline" : 				{
					"destination" : [ "obj-40", 0 ],
					"source" : [ "obj-37", 0 ]
				}

			}
, 			{
				"patchline" : 				{
					"destination" : [ "obj-34", 0 ],
					"midpoints" : [ -215.5, 253.3636474609375, -13.5, 253.3636474609375 ],
					"order" : 0,
					"source" : [ "obj-38", 0 ]
				}

			}
, 			{
				"patchline" : 				{
					"destination" : [ "obj-43", 0 ],
					"order" : 1,
					"source" : [ "obj-38", 0 ]
				}

			}
, 			{
				"patchline" : 				{
					"destination" : [ "obj-13", 1 ],
					"order" : 0,
					"source" : [ "obj-4", 0 ]
				}

			}
, 			{
				"patchline" : 				{
					"destination" : [ "obj-14", 0 ],
					"order" : 1,
					"source" : [ "obj-4", 0 ]
				}

			}
, 			{
				"patchline" : 				{
					"destination" : [ "obj-34", 0 ],
					"midpoints" : [ 638.5, 201.68182373046875, -13.5, 201.68182373046875 ],
					"source" : [ "obj-40", 0 ]
				}

			}
, 			{
				"patchline" : 				{
					"destination" : [ "obj-1", 0 ],
					"source" : [ "obj-44", 0 ]
				}

			}
, 			{
				"patchline" : 				{
					"color" : [ 0.803921568627451, 0.035294117647059, 0.035294117647059, 1.0 ],
					"destination" : [ "obj-34", 0 ],
					"midpoints" : [ -155.5, 202.999984741210938, -13.5, 202.999984741210938 ],
					"source" : [ "obj-46", 0 ]
				}

			}
, 			{
				"patchline" : 				{
					"destination" : [ "obj-48", 0 ],
					"source" : [ "obj-47", 0 ]
				}

			}
, 			{
				"patchline" : 				{
					"destination" : [ "obj-49", 0 ],
					"source" : [ "obj-48", 0 ]
				}

			}
, 			{
				"patchline" : 				{
					"destination" : [ "obj-50", 0 ],
					"source" : [ "obj-51", 0 ]
				}

			}
, 			{
				"patchline" : 				{
					"destination" : [ "obj-121", 1 ],
					"order" : 0,
					"source" : [ "obj-59", 0 ]
				}

			}
, 			{
				"patchline" : 				{
					"destination" : [ "obj-121", 0 ],
					"order" : 1,
					"source" : [ "obj-59", 0 ]
				}

			}
, 			{
				"patchline" : 				{
					"destination" : [ "obj-7", 0 ],
					"source" : [ "obj-6", 0 ]
				}

			}
, 			{
				"patchline" : 				{
					"destination" : [ "obj-34", 0 ],
					"source" : [ "obj-7", 0 ]
				}

			}
, 			{
				"patchline" : 				{
					"destination" : [ "obj-34", 0 ],
					"midpoints" : [ -274.5, 207.909072875976562, -13.5, 207.909072875976562 ],
					"source" : [ "obj-9", 0 ]
				}

			}
 ],
		"parameters" : 		{
			"obj-34" : [ "SharedStep", "SharedStep", 99 ],
			"obj-59" : [ "Shift", "Shift", 25 ],
			"obj-6" : [ "live.text", "live.text", 0 ],
			"inherited_shortname" : 1
		}
,
		"dependency_cache" : [ 			{
				"name" : "piano.svg",
				"bootpath" : "N:/Ableton/User Library/Presets/MIDI Effects/Max MIDI Effect/Flux",
				"patcherrelativepath" : ".",
				"type" : "svg",
				"implicit" : 1
			}
 ],
		"autosave" : 0,
		"oscreceiveudpport" : 0
	}

}
